<?xml version="1.0" encoding="UTF-8" ?>
<svg version="1.1" width="64" height="32" xmlns="http://www.w3.org/2000/svg" shape-rendering="crispEdges">
<rect x="46" y="1" width="1" height="1" fill="#9BADB7" />
<rect x="45" y="2" width="1" height="1" fill="#9BADB7" />
<rect x="46" y="2" width="1" height="1" fill="#9BADB7" />
<rect x="47" y="2" width="1" height="1" fill="#9BADB7" />
<rect x="44" y="3" width="1" height="1" fill="#9BADB7" />
<rect x="45" y="3" width="1" height="1" fill="#9BADB7" />
<rect x="46" y="3" width="1" height="1" fill="#9BADB7" />
<rect x="47" y="3" width="1" height="1" fill="#9BADB7" />
<rect x="43" y="4" width="1" height="1" fill="#9BADB7" />
<rect x="44" y="4" width="1" height="1" fill="#9BADB7" />
<rect x="45" y="4" width="1" height="1" fill="#9BADB7" />
<rect x="46" y="4" width="1" height="1" fill="#9BADB7" />
<rect x="47" y="4" width="1" height="1" fill="#9BADB7" />
<rect x="48" y="4" width="1" height="1" fill="#9BADB7" />
<rect x="42" y="5" width="1" height="1" fill="#9BADB7" />
<rect x="43" y="5" width="1" height="1" fill="#9BADB7" />
<rect x="44" y="5" width="1" height="1" fill="#9BADB7" />
<rect x="45" y="5" width="1" height="1" fill="#9BADB7" />
<rect x="46" y="5" width="1" height="1" fill="#9BADB7" />
<rect x="47" y="5" width="1" height="1" fill="#9BADB7" />
<rect x="48" y="5" width="1" height="1" fill="#9BADB7" />
<rect x="41" y="6" width="1" height="1" fill="#9BADB7" />
<rect x="42" y="6" width="1" height="1" fill="#9BADB7" />
<rect x="43" y="6" width="1" height="1" fill="#9BADB7" />
<rect x="44" y="6" width="1" height="1" fill="#9BADB7" />
<rect x="45" y="6" width="1" height="1" fill="#9BADB7" />
<rect x="46" y="6" width="1" height="1" fill="#9BADB7" />
<rect x="47" y="6" width="1" height="1" fill="#9BADB7" />
<rect x="48" y="6" width="1" height="1" fill="#9BADB7" />
<rect x="14" y="7" width="1" height="1" fill="#696A6A" />
<rect x="15" y="7" width="1" height="1" fill="#696A6A" />
<rect x="16" y="7" width="1" height="1" fill="#696A6A" />
<rect x="17" y="7" width="1" height="1" fill="#696A6A" />
<rect x="18" y="7" width="1" height="1" fill="#696A6A" />
<rect x="19" y="7" width="1" height="1" fill="#696A6A" />
<rect x="20" y="7" width="1" height="1" fill="#696A6A" />
<rect x="21" y="7" width="1" height="1" fill="#696A6A" />
<rect x="22" y="7" width="1" height="1" fill="#696A6A" />
<rect x="23" y="7" width="1" height="1" fill="#696A6A" />
<rect x="24" y="7" width="1" height="1" fill="#696A6A" />
<rect x="25" y="7" width="1" height="1" fill="#696A6A" />
<rect x="26" y="7" width="1" height="1" fill="#696A6A" />
<rect x="27" y="7" width="1" height="1" fill="#696A6A" />
<rect x="28" y="7" width="1" height="1" fill="#696A6A" />
<rect x="29" y="7" width="1" height="1" fill="#696A6A" />
<rect x="30" y="7" width="1" height="1" fill="#696A6A" />
<rect x="41" y="7" width="1" height="1" fill="#9BADB7" />
<rect x="42" y="7" width="1" height="1" fill="#9BADB7" />
<rect x="43" y="7" width="1" height="1" fill="#9BADB7" />
<rect x="44" y="7" width="1" height="1" fill="#9BADB7" />
<rect x="45" y="7" width="1" height="1" fill="#9BADB7" />
<rect x="46" y="7" width="1" height="1" fill="#9BADB7" />
<rect x="47" y="7" width="1" height="1" fill="#9BADB7" />
<rect x="48" y="7" width="1" height="1" fill="#9BADB7" />
<rect x="14" y="8" width="1" height="1" fill="#9BADB7" />
<rect x="17" y="8" width="1" height="1" fill="#9BADB7" />
<rect x="20" y="8" width="1" height="1" fill="#EEC39A" />
<rect x="26" y="8" width="1" height="1" fill="#EEC39A" />
<rect x="30" y="8" width="1" height="1" fill="#9BADB7" />
<rect x="40" y="8" width="1" height="1" fill="#9BADB7" />
<rect x="41" y="8" width="1" height="1" fill="#9BADB7" />
<rect x="42" y="8" width="1" height="1" fill="#9BADB7" />
<rect x="43" y="8" width="1" height="1" fill="#9BADB7" />
<rect x="44" y="8" width="1" height="1" fill="#9BADB7" />
<rect x="45" y="8" width="1" height="1" fill="#9BADB7" />
<rect x="46" y="8" width="1" height="1" fill="#9BADB7" />
<rect x="47" y="8" width="1" height="1" fill="#9BADB7" />
<rect x="48" y="8" width="1" height="1" fill="#9BADB7" />
<rect x="10" y="9" width="1" height="1" fill="#696A6A" />
<rect x="12" y="9" width="1" height="1" fill="#76428A" />
<rect x="13" y="9" width="1" height="1" fill="#76428A" />
<rect x="14" y="9" width="1" height="1" fill="#76428A" />
<rect x="15" y="9" width="1" height="1" fill="#76428A" />
<rect x="16" y="9" width="1" height="1" fill="#76428A" />
<rect x="17" y="9" width="1" height="1" fill="#76428A" />
<rect x="19" y="9" width="1" height="1" fill="#EEC39A" />
<rect x="20" y="9" width="1" height="1" fill="#EEC39A" />
<rect x="21" y="9" width="1" height="1" fill="#EEC39A" />
<rect x="23" y="9" width="1" height="1" fill="#76428A" />
<rect x="25" y="9" width="1" height="1" fill="#EEC39A" />
<rect x="26" y="9" width="1" height="1" fill="#EEC39A" />
<rect x="27" y="9" width="1" height="1" fill="#EEC39A" />
<rect x="29" y="9" width="1" height="1" fill="#76428A" />
<rect x="30" y="9" width="1" height="1" fill="#76428A" />
<rect x="31" y="9" width="1" height="1" fill="#76428A" />
<rect x="32" y="9" width="1" height="1" fill="#76428A" />
<rect x="33" y="9" width="1" height="1" fill="#76428A" />
<rect x="34" y="9" width="1" height="1" fill="#76428A" />
<rect x="35" y="9" width="1" height="1" fill="#76428A" />
<rect x="36" y="9" width="1" height="1" fill="#76428A" />
<rect x="37" y="9" width="1" height="1" fill="#76428A" />
<rect x="38" y="9" width="1" height="1" fill="#76428A" />
<rect x="39" y="9" width="1" height="1" fill="#76428A" />
<rect x="40" y="9" width="1" height="1" fill="#76428A" />
<rect x="41" y="9" width="1" height="1" fill="#76428A" />
<rect x="42" y="9" width="1" height="1" fill="#76428A" />
<rect x="43" y="9" width="1" height="1" fill="#76428A" />
<rect x="44" y="9" width="1" height="1" fill="#76428A" />
<rect x="45" y="9" width="1" height="1" fill="#76428A" />
<rect x="46" y="9" width="1" height="1" fill="#76428A" />
<rect x="47" y="9" width="1" height="1" fill="#76428A" />
<rect x="48" y="9" width="1" height="1" fill="#9BADB7" />
<rect x="49" y="9" width="1" height="1" fill="#76428A" />
<rect x="10" y="10" width="1" height="1" fill="#696A6A" />
<rect x="12" y="10" width="1" height="1" fill="#76428A" />
<rect x="13" y="10" width="1" height="1" fill="#D77BBA" />
<rect x="14" y="10" width="1" height="1" fill="#D77BBA" />
<rect x="15" y="10" width="1" height="1" fill="#D77BBA" />
<rect x="16" y="10" width="1" height="1" fill="#D77BBA" />
<rect x="17" y="10" width="1" height="1" fill="#D77BBA" />
<rect x="18" y="10" width="1" height="1" fill="#76428A" />
<rect x="20" y="10" width="1" height="1" fill="#EEC39A" />
<rect x="22" y="10" width="1" height="1" fill="#76428A" />
<rect x="23" y="10" width="1" height="1" fill="#D77BBA" />
<rect x="24" y="10" width="1" height="1" fill="#76428A" />
<rect x="26" y="10" width="1" height="1" fill="#EEC39A" />
<rect x="28" y="10" width="1" height="1" fill="#76428A" />
<rect x="29" y="10" width="1" height="1" fill="#D77BBA" />
<rect x="30" y="10" width="1" height="1" fill="#D77BBA" />
<rect x="31" y="10" width="1" height="1" fill="#D77BBA" />
<rect x="32" y="10" width="1" height="1" fill="#D77BBA" />
<rect x="33" y="10" width="1" height="1" fill="#D77BBA" />
<rect x="34" y="10" width="1" height="1" fill="#D77BBA" />
<rect x="35" y="10" width="1" height="1" fill="#D77BBA" />
<rect x="36" y="10" width="1" height="1" fill="#D77BBA" />
<rect x="37" y="10" width="1" height="1" fill="#D77BBA" />
<rect x="38" y="10" width="1" height="1" fill="#D77BBA" />
<rect x="39" y="10" width="1" height="1" fill="#D77BBA" />
<rect x="40" y="10" width="1" height="1" fill="#D77BBA" />
<rect x="41" y="10" width="1" height="1" fill="#D77BBA" />
<rect x="42" y="10" width="1" height="1" fill="#D77BBA" />
<rect x="43" y="10" width="1" height="1" fill="#D77BBA" />
<rect x="44" y="10" width="1" height="1" fill="#D77BBA" />
<rect x="45" y="10" width="1" height="1" fill="#D77BBA" />
<rect x="46" y="10" width="1" height="1" fill="#D77BBA" />
<rect x="47" y="10" width="1" height="1" fill="#D77BBA" />
<rect x="48" y="10" width="1" height="1" fill="#D77BBA" />
<rect x="49" y="10" width="1" height="1" fill="#76428A" />
<rect x="10" y="11" width="1" height="1" fill="#696A6A" />
<rect x="12" y="11" width="1" height="1" fill="#76428A" />
<rect x="13" y="11" width="1" height="1" fill="#D77BBA" />
<rect x="14" y="11" width="1" height="1" fill="#D77BBA" />
<rect x="15" y="11" width="1" height="1" fill="#D77BBA" />
<rect x="16" y="11" width="1" height="1" fill="#D77BBA" />
<rect x="17" y="11" width="1" height="1" fill="#D77BBA" />
<rect x="18" y="11" width="1" height="1" fill="#D77BBA" />
<rect x="19" y="11" width="1" height="1" fill="#76428A" />
<rect x="20" y="11" width="1" height="1" fill="#76428A" />
<rect x="21" y="11" width="1" height="1" fill="#76428A" />
<rect x="22" y="11" width="1" height="1" fill="#D77BBA" />
<rect x="23" y="11" width="1" height="1" fill="#D77BBA" />
<rect x="24" y="11" width="1" height="1" fill="#D77BBA" />
<rect x="25" y="11" width="1" height="1" fill="#76428A" />
<rect x="26" y="11" width="1" height="1" fill="#76428A" />
<rect x="27" y="11" width="1" height="1" fill="#76428A" />
<rect x="28" y="11" width="1" height="1" fill="#D77BBA" />
<rect x="29" y="11" width="1" height="1" fill="#D77BBA" />
<rect x="30" y="11" width="1" height="1" fill="#D77BBA" />
<rect x="31" y="11" width="1" height="1" fill="#D77BBA" />
<rect x="32" y="11" width="1" height="1" fill="#D77BBA" />
<rect x="33" y="11" width="1" height="1" fill="#D77BBA" />
<rect x="34" y="11" width="1" height="1" fill="#D77BBA" />
<rect x="35" y="11" width="1" height="1" fill="#D77BBA" />
<rect x="36" y="11" width="1" height="1" fill="#D77BBA" />
<rect x="37" y="11" width="1" height="1" fill="#D77BBA" />
<rect x="38" y="11" width="1" height="1" fill="#D77BBA" />
<rect x="39" y="11" width="1" height="1" fill="#D77BBA" />
<rect x="40" y="11" width="1" height="1" fill="#9BADB7" />
<rect x="41" y="11" width="1" height="1" fill="#9BADB7" />
<rect x="42" y="11" width="1" height="1" fill="#9BADB7" />
<rect x="43" y="11" width="1" height="1" fill="#9BADB7" />
<rect x="44" y="11" width="1" height="1" fill="#9BADB7" />
<rect x="45" y="11" width="1" height="1" fill="#9BADB7" />
<rect x="46" y="11" width="1" height="1" fill="#9BADB7" />
<rect x="47" y="11" width="1" height="1" fill="#9BADB7" />
<rect x="48" y="11" width="1" height="1" fill="#D77BBA" />
<rect x="49" y="11" width="1" height="1" fill="#76428A" />
<rect x="10" y="12" width="1" height="1" fill="#696A6A" />
<rect x="12" y="12" width="1" height="1" fill="#76428A" />
<rect x="13" y="12" width="1" height="1" fill="#D77BBA" />
<rect x="14" y="12" width="1" height="1" fill="#D77BBA" />
<rect x="15" y="12" width="1" height="1" fill="#D77BBA" />
<rect x="16" y="12" width="1" height="1" fill="#D77BBA" />
<rect x="17" y="12" width="1" height="1" fill="#D77BBA" />
<rect x="18" y="12" width="1" height="1" fill="#D77BBA" />
<rect x="19" y="12" width="1" height="1" fill="#D77BBA" />
<rect x="20" y="12" width="1" height="1" fill="#D77BBA" />
<rect x="21" y="12" width="1" height="1" fill="#D77BBA" />
<rect x="22" y="12" width="1" height="1" fill="#D77BBA" />
<rect x="23" y="12" width="1" height="1" fill="#D77BBA" />
<rect x="24" y="12" width="1" height="1" fill="#D77BBA" />
<rect x="25" y="12" width="1" height="1" fill="#D77BBA" />
<rect x="26" y="12" width="1" height="1" fill="#D77BBA" />
<rect x="27" y="12" width="1" height="1" fill="#D77BBA" />
<rect x="28" y="12" width="1" height="1" fill="#D77BBA" />
<rect x="29" y="12" width="1" height="1" fill="#D77BBA" />
<rect x="30" y="12" width="1" height="1" fill="#D77BBA" />
<rect x="31" y="12" width="1" height="1" fill="#D77BBA" />
<rect x="32" y="12" width="1" height="1" fill="#D77BBA" />
<rect x="33" y="12" width="1" height="1" fill="#D77BBA" />
<rect x="34" y="12" width="1" height="1" fill="#D77BBA" />
<rect x="35" y="12" width="1" height="1" fill="#D77BBA" />
<rect x="36" y="12" width="1" height="1" fill="#D77BBA" />
<rect x="37" y="12" width="1" height="1" fill="#D77BBA" />
<rect x="38" y="12" width="1" height="1" fill="#D77BBA" />
<rect x="39" y="12" width="1" height="1" fill="#D77BBA" />
<rect x="40" y="12" width="1" height="1" fill="#D77BBA" />
<rect x="41" y="12" width="1" height="1" fill="#D77BBA" />
<rect x="42" y="12" width="1" height="1" fill="#D77BBA" />
<rect x="43" y="12" width="1" height="1" fill="#D77BBA" />
<rect x="44" y="12" width="1" height="1" fill="#D77BBA" />
<rect x="45" y="12" width="1" height="1" fill="#D77BBA" />
<rect x="46" y="12" width="1" height="1" fill="#D77BBA" />
<rect x="47" y="12" width="1" height="1" fill="#D77BBA" />
<rect x="48" y="12" width="1" height="1" fill="#D77BBA" />
<rect x="49" y="12" width="1" height="1" fill="#D77BBA" />
<rect x="50" y="12" width="1" height="1" fill="#76428A" />
<rect x="10" y="13" width="1" height="1" fill="#696A6A" />
<rect x="12" y="13" width="1" height="1" fill="#76428A" />
<rect x="13" y="13" width="1" height="1" fill="#D77BBA" />
<rect x="14" y="13" width="1" height="1" fill="#D77BBA" />
<rect x="15" y="13" width="1" height="1" fill="#D77BBA" />
<rect x="16" y="13" width="1" height="1" fill="#D77BBA" />
<rect x="17" y="13" width="1" height="1" fill="#D77BBA" />
<rect x="18" y="13" width="1" height="1" fill="#D77BBA" />
<rect x="19" y="13" width="1" height="1" fill="#D77BBA" />
<rect x="20" y="13" width="1" height="1" fill="#D77BBA" />
<rect x="21" y="13" width="1" height="1" fill="#D77BBA" />
<rect x="22" y="13" width="1" height="1" fill="#D77BBA" />
<rect x="23" y="13" width="1" height="1" fill="#D77BBA" />
<rect x="24" y="13" width="1" height="1" fill="#D77BBA" />
<rect x="25" y="13" width="1" height="1" fill="#D77BBA" />
<rect x="26" y="13" width="1" height="1" fill="#D77BBA" />
<rect x="27" y="13" width="1" height="1" fill="#D77BBA" />
<rect x="28" y="13" width="1" height="1" fill="#D77BBA" />
<rect x="29" y="13" width="1" height="1" fill="#D77BBA" />
<rect x="30" y="13" width="1" height="1" fill="#D77BBA" />
<rect x="31" y="13" width="1" height="1" fill="#D77BBA" />
<rect x="32" y="13" width="1" height="1" fill="#D77BBA" />
<rect x="33" y="13" width="1" height="1" fill="#D77BBA" />
<rect x="34" y="13" width="1" height="1" fill="#D77BBA" />
<rect x="35" y="13" width="1" height="1" fill="#D77BBA" />
<rect x="36" y="13" width="1" height="1" fill="#D77BBA" />
<rect x="37" y="13" width="1" height="1" fill="#D77BBA" />
<rect x="38" y="13" width="1" height="1" fill="#D77BBA" />
<rect x="39" y="13" width="1" height="1" fill="#D77BBA" />
<rect x="40" y="13" width="1" height="1" fill="#D77BBA" />
<rect x="41" y="13" width="1" height="1" fill="#D77BBA" />
<rect x="42" y="13" width="1" height="1" fill="#D77BBA" />
<rect x="43" y="13" width="1" height="1" fill="#D77BBA" />
<rect x="44" y="13" width="1" height="1" fill="#D77BBA" />
<rect x="45" y="13" width="1" height="1" fill="#D77BBA" />
<rect x="46" y="13" width="1" height="1" fill="#D77BBA" />
<rect x="47" y="13" width="1" height="1" fill="#D77BBA" />
<rect x="48" y="13" width="1" height="1" fill="#76428A" />
<rect x="49" y="13" width="1" height="1" fill="#76428A" />
<rect x="9" y="14" width="1" height="1" fill="#696A6A" />
<rect x="10" y="14" width="1" height="1" fill="#696A6A" />
<rect x="11" y="14" width="1" height="1" fill="#696A6A" />
<rect x="12" y="14" width="1" height="1" fill="#76428A" />
<rect x="13" y="14" width="1" height="1" fill="#D77BBA" />
<rect x="14" y="14" width="1" height="1" fill="#D77BBA" />
<rect x="15" y="14" width="1" height="1" fill="#D77BBA" />
<rect x="16" y="14" width="1" height="1" fill="#D77BBA" />
<rect x="17" y="14" width="1" height="1" fill="#D77BBA" />
<rect x="18" y="14" width="1" height="1" fill="#D77BBA" />
<rect x="19" y="14" width="1" height="1" fill="#D77BBA" />
<rect x="20" y="14" width="1" height="1" fill="#D77BBA" />
<rect x="21" y="14" width="1" height="1" fill="#D77BBA" />
<rect x="22" y="14" width="1" height="1" fill="#D77BBA" />
<rect x="23" y="14" width="1" height="1" fill="#D77BBA" />
<rect x="24" y="14" width="1" height="1" fill="#D77BBA" />
<rect x="25" y="14" width="1" height="1" fill="#D77BBA" />
<rect x="26" y="14" width="1" height="1" fill="#D77BBA" />
<rect x="27" y="14" width="1" height="1" fill="#D77BBA" />
<rect x="28" y="14" width="1" height="1" fill="#D77BBA" />
<rect x="29" y="14" width="1" height="1" fill="#D77BBA" />
<rect x="30" y="14" width="1" height="1" fill="#D77BBA" />
<rect x="31" y="14" width="1" height="1" fill="#D77BBA" />
<rect x="32" y="14" width="1" height="1" fill="#D77BBA" />
<rect x="33" y="14" width="1" height="1" fill="#D77BBA" />
<rect x="34" y="14" width="1" height="1" fill="#D77BBA" />
<rect x="35" y="14" width="1" height="1" fill="#D77BBA" />
<rect x="36" y="14" width="1" height="1" fill="#D77BBA" />
<rect x="37" y="14" width="1" height="1" fill="#D77BBA" />
<rect x="38" y="14" width="1" height="1" fill="#D77BBA" />
<rect x="39" y="14" width="1" height="1" fill="#D77BBA" />
<rect x="40" y="14" width="1" height="1" fill="#D77BBA" />
<rect x="41" y="14" width="1" height="1" fill="#D77BBA" />
<rect x="42" y="14" width="1" height="1" fill="#D77BBA" />
<rect x="43" y="14" width="1" height="1" fill="#76428A" />
<rect x="44" y="14" width="1" height="1" fill="#76428A" />
<rect x="45" y="14" width="1" height="1" fill="#76428A" />
<rect x="46" y="14" width="1" height="1" fill="#76428A" />
<rect x="47" y="14" width="1" height="1" fill="#76428A" />
<rect x="9" y="15" width="1" height="1" fill="#696A6A" />
<rect x="12" y="15" width="1" height="1" fill="#76428A" />
<rect x="13" y="15" width="1" height="1" fill="#D77BBA" />
<rect x="14" y="15" width="1" height="1" fill="#D77BBA" />
<rect x="15" y="15" width="1" height="1" fill="#D77BBA" />
<rect x="16" y="15" width="1" height="1" fill="#D77BBA" />
<rect x="17" y="15" width="1" height="1" fill="#D77BBA" />
<rect x="18" y="15" width="1" height="1" fill="#D77BBA" />
<rect x="19" y="15" width="1" height="1" fill="#D77BBA" />
<rect x="20" y="15" width="1" height="1" fill="#D77BBA" />
<rect x="21" y="15" width="1" height="1" fill="#D77BBA" />
<rect x="22" y="15" width="1" height="1" fill="#D77BBA" />
<rect x="23" y="15" width="1" height="1" fill="#D77BBA" />
<rect x="24" y="15" width="1" height="1" fill="#D77BBA" />
<rect x="25" y="15" width="1" height="1" fill="#D77BBA" />
<rect x="26" y="15" width="1" height="1" fill="#D77BBA" />
<rect x="27" y="15" width="1" height="1" fill="#D77BBA" />
<rect x="28" y="15" width="1" height="1" fill="#D77BBA" />
<rect x="29" y="15" width="1" height="1" fill="#D77BBA" />
<rect x="30" y="15" width="1" height="1" fill="#D77BBA" />
<rect x="31" y="15" width="1" height="1" fill="#D77BBA" />
<rect x="32" y="15" width="1" height="1" fill="#D77BBA" />
<rect x="33" y="15" width="1" height="1" fill="#D77BBA" />
<rect x="34" y="15" width="1" height="1" fill="#D77BBA" />
<rect x="35" y="15" width="1" height="1" fill="#D77BBA" />
<rect x="36" y="15" width="1" height="1" fill="#D77BBA" />
<rect x="37" y="15" width="1" height="1" fill="#D77BBA" />
<rect x="38" y="15" width="1" height="1" fill="#D77BBA" />
<rect x="39" y="15" width="1" height="1" fill="#D77BBA" />
<rect x="40" y="15" width="1" height="1" fill="#76428A" />
<rect x="41" y="15" width="1" height="1" fill="#76428A" />
<rect x="42" y="15" width="1" height="1" fill="#76428A" />
<rect x="45" y="15" width="1" height="1" fill="#000000" />
<rect x="9" y="16" width="1" height="1" fill="#696A6A" />
<rect x="12" y="16" width="1" height="1" fill="#76428A" />
<rect x="13" y="16" width="1" height="1" fill="#D77BBA" />
<rect x="14" y="16" width="1" height="1" fill="#D77BBA" />
<rect x="15" y="16" width="1" height="1" fill="#D77BBA" />
<rect x="16" y="16" width="1" height="1" fill="#D77BBA" />
<rect x="17" y="16" width="1" height="1" fill="#D77BBA" />
<rect x="18" y="16" width="1" height="1" fill="#D77BBA" />
<rect x="19" y="16" width="1" height="1" fill="#D77BBA" />
<rect x="20" y="16" width="1" height="1" fill="#D77BBA" />
<rect x="21" y="16" width="1" height="1" fill="#D77BBA" />
<rect x="22" y="16" width="1" height="1" fill="#D77BBA" />
<rect x="23" y="16" width="1" height="1" fill="#D77BBA" />
<rect x="24" y="16" width="1" height="1" fill="#D77BBA" />
<rect x="25" y="16" width="1" height="1" fill="#D77BBA" />
<rect x="26" y="16" width="1" height="1" fill="#D77BBA" />
<rect x="27" y="16" width="1" height="1" fill="#D77BBA" />
<rect x="28" y="16" width="1" height="1" fill="#D77BBA" />
<rect x="29" y="16" width="1" height="1" fill="#D77BBA" />
<rect x="30" y="16" width="1" height="1" fill="#D77BBA" />
<rect x="31" y="16" width="1" height="1" fill="#D77BBA" />
<rect x="32" y="16" width="1" height="1" fill="#D77BBA" />
<rect x="33" y="16" width="1" height="1" fill="#D77BBA" />
<rect x="34" y="16" width="1" height="1" fill="#D77BBA" />
<rect x="35" y="16" width="1" height="1" fill="#76428A" />
<rect x="36" y="16" width="1" height="1" fill="#76428A" />
<rect x="37" y="16" width="1" height="1" fill="#76428A" />
<rect x="38" y="16" width="1" height="1" fill="#76428A" />
<rect x="39" y="16" width="1" height="1" fill="#76428A" />
<rect x="41" y="16" width="1" height="1" fill="#000000" />
<rect x="45" y="16" width="1" height="1" fill="#000000" />
<rect x="9" y="17" width="1" height="1" fill="#696A6A" />
<rect x="12" y="17" width="1" height="1" fill="#76428A" />
<rect x="13" y="17" width="1" height="1" fill="#D77BBA" />
<rect x="14" y="17" width="1" height="1" fill="#D77BBA" />
<rect x="15" y="17" width="1" height="1" fill="#D77BBA" />
<rect x="16" y="17" width="1" height="1" fill="#D77BBA" />
<rect x="17" y="17" width="1" height="1" fill="#D77BBA" />
<rect x="18" y="17" width="1" height="1" fill="#D77BBA" />
<rect x="19" y="17" width="1" height="1" fill="#D77BBA" />
<rect x="20" y="17" width="1" height="1" fill="#D77BBA" />
<rect x="21" y="17" width="1" height="1" fill="#D77BBA" />
<rect x="22" y="17" width="1" height="1" fill="#D77BBA" />
<rect x="23" y="17" width="1" height="1" fill="#D77BBA" />
<rect x="24" y="17" width="1" height="1" fill="#D77BBA" />
<rect x="25" y="17" width="1" height="1" fill="#D77BBA" />
<rect x="26" y="17" width="1" height="1" fill="#D77BBA" />
<rect x="27" y="17" width="1" height="1" fill="#D77BBA" />
<rect x="28" y="17" width="1" height="1" fill="#D77BBA" />
<rect x="29" y="17" width="1" height="1" fill="#D77BBA" />
<rect x="30" y="17" width="1" height="1" fill="#D77BBA" />
<rect x="31" y="17" width="1" height="1" fill="#D77BBA" />
<rect x="32" y="17" width="1" height="1" fill="#D77BBA" />
<rect x="33" y="17" width="1" height="1" fill="#76428A" />
<rect x="34" y="17" width="1" height="1" fill="#76428A" />
<rect x="42" y="17" width="1" height="1" fill="#000000" />
<rect x="45" y="17" width="1" height="1" fill="#000000" />
<rect x="9" y="18" width="1" height="1" fill="#696A6A" />
<rect x="12" y="18" width="1" height="1" fill="#76428A" />
<rect x="13" y="18" width="1" height="1" fill="#D77BBA" />
<rect x="14" y="18" width="1" height="1" fill="#D77BBA" />
<rect x="15" y="18" width="1" height="1" fill="#D77BBA" />
<rect x="16" y="18" width="1" height="1" fill="#D77BBA" />
<rect x="17" y="18" width="1" height="1" fill="#D77BBA" />
<rect x="18" y="18" width="1" height="1" fill="#D77BBA" />
<rect x="19" y="18" width="1" height="1" fill="#D77BBA" />
<rect x="20" y="18" width="1" height="1" fill="#D77BBA" />
<rect x="21" y="18" width="1" height="1" fill="#D77BBA" />
<rect x="22" y="18" width="1" height="1" fill="#D77BBA" />
<rect x="23" y="18" width="1" height="1" fill="#D77BBA" />
<rect x="24" y="18" width="1" height="1" fill="#D77BBA" />
<rect x="25" y="18" width="1" height="1" fill="#D77BBA" />
<rect x="26" y="18" width="1" height="1" fill="#D77BBA" />
<rect x="27" y="18" width="1" height="1" fill="#D77BBA" />
<rect x="28" y="18" width="1" height="1" fill="#D77BBA" />
<rect x="29" y="18" width="1" height="1" fill="#D77BBA" />
<rect x="30" y="18" width="1" height="1" fill="#76428A" />
<rect x="31" y="18" width="1" height="1" fill="#76428A" />
<rect x="32" y="18" width="1" height="1" fill="#76428A" />
<rect x="43" y="18" width="1" height="1" fill="#000000" />
<rect x="45" y="18" width="1" height="1" fill="#000000" />
<rect x="9" y="19" width="1" height="1" fill="#696A6A" />
<rect x="12" y="19" width="1" height="1" fill="#76428A" />
<rect x="13" y="19" width="1" height="1" fill="#76428A" />
<rect x="14" y="19" width="1" height="1" fill="#76428A" />
<rect x="15" y="19" width="1" height="1" fill="#76428A" />
<rect x="16" y="19" width="1" height="1" fill="#76428A" />
<rect x="17" y="19" width="1" height="1" fill="#76428A" />
<rect x="18" y="19" width="1" height="1" fill="#76428A" />
<rect x="19" y="19" width="1" height="1" fill="#76428A" />
<rect x="20" y="19" width="1" height="1" fill="#76428A" />
<rect x="21" y="19" width="1" height="1" fill="#76428A" />
<rect x="22" y="19" width="1" height="1" fill="#76428A" />
<rect x="23" y="19" width="1" height="1" fill="#76428A" />
<rect x="24" y="19" width="1" height="1" fill="#76428A" />
<rect x="25" y="19" width="1" height="1" fill="#76428A" />
<rect x="26" y="19" width="1" height="1" fill="#76428A" />
<rect x="27" y="19" width="1" height="1" fill="#76428A" />
<rect x="28" y="19" width="1" height="1" fill="#76428A" />
<rect x="29" y="19" width="1" height="1" fill="#76428A" />
<rect x="44" y="19" width="1" height="1" fill="#000000" />
<rect x="45" y="19" width="1" height="1" fill="#696A6A" />
<rect x="14" y="20" width="1" height="1" fill="#9BADB7" />
<rect x="17" y="20" width="1" height="1" fill="#9BADB7" />
<rect x="20" y="20" width="1" height="1" fill="#9BADB7" />
<rect x="23" y="20" width="1" height="1" fill="#9BADB7" />
<rect x="26" y="20" width="1" height="1" fill="#9BADB7" />
<rect x="29" y="20" width="1" height="1" fill="#9BADB7" />
<rect x="44" y="20" width="1" height="1" fill="#696A6A" />
<rect x="45" y="20" width="1" height="1" fill="#FFFFFF" />
<rect x="46" y="20" width="1" height="1" fill="#696A6A" />
<rect x="14" y="21" width="1" height="1" fill="#696A6A" />
<rect x="15" y="21" width="1" height="1" fill="#696A6A" />
<rect x="16" y="21" width="1" height="1" fill="#696A6A" />
<rect x="17" y="21" width="1" height="1" fill="#696A6A" />
<rect x="18" y="21" width="1" height="1" fill="#696A6A" />
<rect x="19" y="21" width="1" height="1" fill="#696A6A" />
<rect x="20" y="21" width="1" height="1" fill="#696A6A" />
<rect x="21" y="21" width="1" height="1" fill="#696A6A" />
<rect x="22" y="21" width="1" height="1" fill="#696A6A" />
<rect x="23" y="21" width="1" height="1" fill="#696A6A" />
<rect x="24" y="21" width="1" height="1" fill="#696A6A" />
<rect x="25" y="21" width="1" height="1" fill="#696A6A" />
<rect x="26" y="21" width="1" height="1" fill="#696A6A" />
<rect x="27" y="21" width="1" height="1" fill="#696A6A" />
<rect x="28" y="21" width="1" height="1" fill="#696A6A" />
<rect x="29" y="21" width="1" height="1" fill="#696A6A" />
<rect x="30" y="21" width="1" height="1" fill="#696A6A" />
<rect x="45" y="21" width="1" height="1" fill="#696A6A" />
<rect x="18" y="22" width="1" height="1" fill="#000000" />
<rect x="26" y="22" width="1" height="1" fill="#000000" />
<rect x="19" y="23" width="1" height="1" fill="#000000" />
<rect x="25" y="23" width="1" height="1" fill="#000000" />
<rect x="20" y="24" width="1" height="1" fill="#000000" />
<rect x="24" y="24" width="1" height="1" fill="#000000" />
<rect x="21" y="25" width="1" height="1" fill="#000000" />
<rect x="22" y="25" width="1" height="1" fill="#696A6A" />
<rect x="23" y="25" width="1" height="1" fill="#000000" />
<rect x="21" y="26" width="1" height="1" fill="#696A6A" />
<rect x="22" y="26" width="1" height="1" fill="#FFFFFF" />
<rect x="23" y="26" width="1" height="1" fill="#696A6A" />
<rect x="22" y="27" width="1" height="1" fill="#696A6A" />
</svg>